<?xml version="1.0" standalone="no"?>
<!DOCTYPE svg PUBLIC "-//W3C//DTD SVG 20010904//EN"
 "http://www.w3.org/TR/2001/REC-SVG-20010904/DTD/svg10.dtd">
<svg version="1.0" xmlns="http://www.w3.org/2000/svg"
 width="2328.000000pt" height="2328.000000pt" viewBox="0 0 2328.000000 2328.000000"
 preserveAspectRatio="xMidYMid meet">
<metadata>
Created by potrace 1.14, written by Peter Selinger 2001-2017
</metadata>
<g transform="translate(0.000000,2328.000000) scale(0.100000,-0.100000)"
fill="#000000" stroke="none">
<path d="M2030 15440 l0 -770 -452 -2 -453 -3 0 -300 0 -300 453 -3 452 -2 0
-2075 0 -2075 300 0 300 0 0 2075 0 2075 453 2 452 3 3 303 2 302 -455 0 -455
0 0 770 0 770 -300 0 -300 0 0 -770z"/>
<path d="M6090 15630 c-1221 -118 -2232 -948 -2574 -2117 -157 -535 -153
-1146 10 -1667 155 -495 412 -911 780 -1266 142 -137 247 -221 419 -334 487
-323 1030 -487 1610 -488 221 -1 359 13 582 58 652 131 1223 469 1673 989 98
114 321 438 309 449 -2 2 -49 31 -104 64 l-100 61 -6 -39 c-3 -25 -33 -80 -92
-167 -427 -634 -1099 -1055 -1866 -1170 -181 -27 -631 -25 -808 5 -144 23
-294 59 -418 98 -816 261 -1471 907 -1743 1719 -86 257 -142 581 -142 823 l0
72 2810 0 c2803 0 2810 0 2810 20 0 14 7 20 22 20 21 0 21 2 15 123 -7 139
-45 383 -83 530 -140 555 -453 1075 -873 1455 -456 411 -1004 666 -1606 747
-144 19 -492 27 -625 15z m574 -234 c28 -3 88 -13 135 -22 47 -9 95 -18 106
-20 11 -2 47 -10 80 -19 33 -8 69 -17 80 -20 105 -24 366 -125 489 -189 38
-20 75 -36 82 -36 7 0 14 -4 16 -8 2 -4 26 -20 53 -36 28 -16 88 -54 133 -85
46 -31 91 -60 100 -66 9 -5 22 -16 30 -23 8 -7 30 -25 50 -40 49 -36 86 -68
148 -124 28 -27 54 -45 59 -40 5 4 5 2 2 -4 -3 -6 13 -28 36 -50 62 -59 168
-180 223 -254 27 -36 51 -67 54 -70 12 -9 106 -153 151 -230 116 -199 215
-439 275 -670 20 -74 37 -147 39 -162 2 -15 9 -53 14 -85 13 -72 20 -121 26
-200 l6 -61 -2711 0 -2710 0 4 37 c2 20 7 65 11 101 4 36 9 74 11 85 3 11 7
37 9 57 3 21 12 68 21 105 9 38 17 75 19 83 10 50 21 88 57 195 22 66 46 134
54 152 8 17 14 34 14 37 0 4 23 53 50 110 28 57 50 109 50 115 0 6 4 11 8 11
4 0 18 19 30 43 50 96 151 255 202 316 8 10 26 33 40 51 14 18 39 49 57 69 17
19 29 39 26 44 -2 4 -1 7 4 5 4 -1 62 52 128 118 66 66 153 146 193 178 39 32
72 63 72 68 0 5 4 7 8 4 5 -3 18 4 30 14 12 11 25 20 31 20 5 0 11 4 13 9 4
11 143 101 228 149 36 20 68 41 72 46 4 6 8 7 8 3 0 -4 24 5 53 21 68 37 236
109 312 133 109 36 220 68 245 73 14 2 43 9 65 14 52 14 203 40 280 48 33 3
61 7 63 9 6 5 515 -3 566 -9z"/>
<path d="M6156 15162 c-2 -1 -36 -4 -77 -7 -41 -3 -84 -8 -97 -10 -12 -3 -43
-8 -69 -11 -26 -3 -50 -7 -53 -9 -3 -2 -26 -6 -50 -10 -96 -14 -343 -84 -445
-125 -11 -4 -45 -18 -75 -30 -90 -37 -145 -63 -152 -74 -4 -6 -8 -8 -8 -3 0
19 -350 -193 -350 -213 0 -6 -3 -9 -7 -8 -9 3 -60 -29 -83 -52 -9 -8 -39 -34
-66 -57 -81 -68 -104 -91 -104 -104 0 -7 -3 -10 -6 -6 -8 8 -113 -104 -114
-121 0 -7 -4 -10 -10 -7 -5 3 -10 3 -10 -2 0 -4 -13 -22 -29 -38 -66 -72 -225
-324 -261 -415 -8 -19 -16 -37 -19 -40 -8 -7 -33 -72 -34 -87 0 -7 -4 -13 -8
-13 -3 0 -9 -10 -12 -22 -2 -13 -16 -62 -30 -110 -47 -158 -64 -261 -72 -441
l-5 -97 902 2 901 3 3 31 c18 243 221 446 495 498 37 7 75 12 86 11 20 -1 20
10 20 785 l-1 787 -79 -1 c-43 -1 -80 -2 -81 -4z"/>
<path d="M6366 14391 c0 -427 2 -781 3 -787 0 -6 18 -11 39 -11 60 0 161 -30
250 -74 64 -31 102 -59 158 -115 41 -41 74 -81 74 -89 0 -8 4 -15 9 -15 5 0
11 -8 14 -17 3 -10 13 -38 22 -63 20 -52 28 -92 29 -136 l1 -31 900 2 900 3
-1 93 c0 160 -25 307 -80 475 -19 60 -41 123 -49 139 -22 50 -44 105 -44 111
0 3 -8 12 -18 20 -10 7 -14 14 -10 14 18 0 -148 267 -210 337 -15 18 -44 52
-63 77 -19 25 -41 45 -49 46 -8 0 -12 3 -8 6 3 3 -22 34 -56 68 -69 68 -197
181 -197 173 0 -2 -17 10 -37 29 -20 19 -45 36 -55 40 -10 3 -18 10 -18 15 0
5 -7 9 -15 9 -8 0 -15 4 -15 9 0 5 -13 14 -30 21 -16 7 -30 16 -30 21 0 5 -4
9 -9 9 -5 0 -38 17 -72 38 -35 21 -79 45 -96 53 -18 8 -33 17 -33 21 0 5 -4 8
-10 8 -5 0 -39 14 -75 30 -36 17 -68 30 -70 30 -3 0 -24 9 -48 19 -46 22 -211
80 -241 87 -10 2 -42 10 -70 18 -28 8 -87 22 -131 31 -44 9 -87 18 -96 20 -9
2 -40 6 -70 10 -30 3 -61 8 -69 10 -21 6 -162 17 -250 19 l-76 3 2 -776z"/>
<path d="M18795 14894 c-651 -52 -1155 -279 -1585 -713 -363 -366 -585 -779
-675 -1258 -94 -502 -50 -1047 121 -1481 184 -468 528 -887 956 -1166 265
-173 611 -297 973 -348 142 -20 563 -17 705 6 474 75 905 278 1209 571 66 64
145 150 177 191 31 40 63 74 70 74 12 0 14 -65 14 -370 l0 -370 293 2 292 3 3
2378 2 2377 -295 0 -295 0 0 -375 c0 -407 0 -409 -52 -336 -58 81 -201 232
-295 311 -316 265 -672 422 -1095 484 -105 16 -424 28 -523 20z m402 -571 c48
-7 97 -16 108 -18 11 -3 38 -9 60 -13 56 -13 189 -59 239 -83 22 -11 50 -22
60 -24 11 -3 23 -10 26 -16 4 -6 10 -11 13 -11 19 0 47 -12 47 -19 0 -5 4 -9
10 -9 5 0 36 -17 67 -37 32 -21 62 -38 66 -38 4 0 11 -5 15 -10 4 -6 23 -22
42 -35 49 -34 70 -51 95 -77 12 -13 25 -23 28 -23 7 0 197 -188 197 -195 0 -3
14 -18 30 -33 17 -16 30 -32 30 -36 0 -4 12 -19 26 -34 14 -15 33 -39 42 -54
9 -16 20 -28 24 -28 4 0 8 -4 8 -9 0 -8 58 -102 80 -128 6 -7 10 -19 10 -28 0
-8 5 -15 10 -15 6 0 10 -7 10 -15 0 -8 5 -15 11 -15 5 0 7 -4 4 -10 -3 -5 -1
-10 4 -10 6 0 10 -3 9 -7 -1 -5 9 -30 21 -58 30 -66 44 -98 47 -110 1 -5 8
-23 15 -40 7 -16 11 -36 10 -42 -1 -7 2 -13 7 -13 5 0 9 -6 10 -12 0 -7 6 -31
12 -53 6 -22 13 -51 15 -65 5 -26 8 -38 18 -80 37 -146 43 -534 12 -715 -3
-16 -8 -41 -10 -55 -3 -14 -7 -36 -10 -50 -12 -67 -39 -166 -48 -177 -5 -7 -7
-13 -3 -13 3 0 -3 -24 -15 -52 -11 -29 -22 -61 -24 -70 -2 -10 -12 -34 -22
-55 -10 -21 -18 -40 -18 -43 -1 -3 -16 -34 -35 -70 -19 -36 -34 -67 -35 -70 0
-3 -18 -31 -38 -62 -20 -31 -37 -60 -37 -63 0 -3 -9 -15 -20 -27 -11 -12 -20
-28 -20 -35 0 -7 -4 -13 -8 -13 -5 0 -24 -21 -43 -47 -39 -56 -70 -92 -121
-146 -21 -21 -38 -43 -38 -48 0 -5 -6 -9 -14 -9 -8 0 -18 -5 -22 -12 -5 -7 -2
-8 7 -3 8 4 5 -1 -6 -12 -11 -11 -21 -19 -23 -18 -2 2 -21 -14 -43 -36 -21
-21 -43 -39 -48 -39 -4 0 -17 -11 -27 -25 -10 -14 -23 -25 -27 -25 -5 0 -14
-6 -21 -12 -30 -29 -63 -54 -89 -67 -15 -8 -27 -18 -27 -23 0 -4 -6 -8 -14 -8
-7 0 -19 -7 -26 -15 -7 -8 -16 -13 -20 -10 -5 3 -12 0 -16 -6 -8 -13 -195
-105 -206 -101 -5 1 -8 -3 -8 -10 0 -6 -3 -8 -7 -5 -3 4 -12 2 -19 -3 -6 -6
-21 -13 -33 -15 -12 -3 -29 -7 -38 -10 -91 -26 -173 -47 -198 -51 -16 -3 -40
-7 -52 -9 -40 -9 -186 -18 -283 -19 -134 0 -313 20 -425 48 -5 2 -23 6 -40 10
-16 4 -37 10 -45 13 -8 3 -21 8 -27 10 -7 1 -19 5 -25 6 -7 2 -22 8 -33 12
-11 5 -41 16 -67 26 -26 10 -80 35 -120 56 -40 20 -76 36 -80 35 -5 -1 -8 3
-8 8 0 6 -7 10 -15 10 -8 0 -15 5 -15 11 0 5 -4 7 -10 4 -5 -3 -10 -1 -10 6 0
7 -3 10 -6 6 -3 -3 -15 3 -27 13 -12 11 -25 19 -30 19 -4 0 -22 14 -40 31 -17
16 -37 30 -42 30 -6 0 -17 9 -25 20 -8 11 -18 20 -23 20 -4 0 -18 11 -30 23
-12 13 -34 32 -49 42 -16 9 -28 24 -28 31 0 8 -5 14 -11 14 -12 0 -90 79 -149
150 -19 24 -41 49 -47 56 -7 7 -13 17 -13 23 0 6 -3 11 -8 11 -4 0 -18 18 -32
40 -14 22 -28 40 -32 40 -5 0 -8 6 -8 13 0 7 -8 22 -19 33 -10 11 -22 30 -25
41 -4 12 -13 27 -21 33 -8 7 -15 21 -15 30 0 10 -4 20 -8 22 -4 2 -23 39 -42
83 -19 44 -37 82 -40 85 -5 5 -49 138 -50 152 -1 4 -7 26 -15 48 -8 22 -12 40
-10 40 3 0 0 12 -5 26 -6 15 -13 43 -15 63 -3 20 -7 47 -9 61 -17 85 -21 159
-21 355 0 121 4 247 8 280 10 76 45 250 58 291 5 17 11 40 14 52 2 11 9 30 15
41 6 12 8 21 4 21 -3 0 -1 7 6 15 7 8 9 15 5 15 -4 0 -2 6 4 14 7 8 13 22 15
32 3 11 10 33 17 49 7 17 13 32 14 35 3 12 81 165 86 170 3 3 14 21 25 40 10
19 21 37 24 40 3 3 19 26 35 52 17 27 33 48 38 48 4 0 7 7 7 15 0 9 7 18 15
21 8 4 15 10 15 15 0 5 8 17 18 27 9 11 37 42 62 71 63 72 130 142 130 136 0
-3 20 14 45 38 55 53 59 56 122 99 29 20 49 38 46 42 -4 3 1 6 10 6 9 0 17 5
17 12 0 6 3 9 6 6 5 -5 50 20 89 49 6 5 37 22 70 38 33 17 63 35 67 40 4 6 8
6 8 2 0 -5 12 -2 28 7 15 8 41 19 57 25 17 6 44 16 60 22 17 7 35 13 40 15 6
1 37 10 70 19 33 9 69 18 80 20 11 2 32 7 48 10 61 12 84 16 137 21 30 4 56 8
58 9 10 9 337 0 409 -12z"/>
<path d="M13680 14884 c-19 -2 -78 -9 -130 -15 -421 -47 -782 -216 -1081 -506
-53 -51 -101 -93 -107 -93 -9 0 -12 70 -12 260 l0 260 -290 0 -290 0 0 -2380
0 -2380 288 2 287 3 6 1455 c4 1040 9 1486 18 1565 44 397 165 664 407 895
283 271 664 389 1154 360 257 -16 416 -54 593 -141 104 -52 158 -90 241 -168
187 -180 295 -426 358 -821 22 -133 22 -152 25 -1642 l4 -1508 295 0 295 0 -4
1508 c-3 1051 -7 1542 -16 1622 -47 465 -131 736 -312 1005 -257 382 -703 634
-1249 705 -88 12 -419 21 -480 14z"/>
<path d="M11020 14845 c-182 -29 -355 -95 -500 -191 -90 -59 -255 -216 -336
-319 -32 -41 -64 -75 -71 -75 -10 0 -13 58 -13 265 l0 265 -285 0 -285 0 2
-2377 3 -2378 302 -3 302 -2 4 1567 c3 1551 3 1569 25 1698 36 218 78 348 156
478 137 230 418 381 794 428 l102 13 0 323 0 323 -57 -1 c-32 -1 -96 -7 -143
-14z"/>
<path d="M9550 8670 l0 -400 45 0 45 0 0 138 0 138 63 62 c34 34 70 62 79 62
10 0 69 -76 155 -200 l138 -199 58 -1 c31 0 57 2 57 5 0 2 -74 105 -165 228
-91 124 -165 231 -165 239 0 8 71 85 159 171 l159 157 -57 0 -56 0 -195 -195
c-107 -107 -203 -195 -212 -195 -17 0 -18 16 -18 195 l0 195 -45 0 -45 0 0
-400z"/>
<path d="M12380 8670 l0 -400 40 0 40 0 0 400 0 400 -40 0 -40 0 0 -400z"/>
<path d="M13640 8930 c0 -82 -4 -140 -9 -140 -6 0 -32 15 -58 32 -114 77 -269
16 -323 -129 -18 -48 -21 -74 -18 -153 3 -84 7 -102 34 -150 19 -34 50 -68 80
-90 45 -33 53 -35 124 -35 68 0 81 3 113 28 44 34 57 34 57 2 0 -22 4 -25 40
-25 l40 0 0 400 0 400 -40 0 -40 0 0 -140z m-102 -163 c6 -5 12 -6 12 -3 0 18
61 -62 72 -94 19 -54 16 -207 -6 -252 -26 -53 -82 -87 -137 -82 -66 5 -66 5
-97 38 -44 47 -59 99 -57 196 2 96 24 154 72 185 48 32 109 37 141 12z"/>
<path d="M16750 8670 l0 -400 295 0 295 0 0 40 0 40 -250 0 -250 0 0 145 0
145 225 0 225 0 0 40 0 40 -222 2 -223 3 -3 128 -3 127 241 0 240 0 0 45 0 45
-285 0 -285 0 0 -400z"/>
<path d="M15535 9016 c-40 -24 -40 -25 -45 -98 l-5 -73 -37 -3 c-35 -3 -38 -6
-38 -33 0 -27 2 -29 40 -29 l40 0 0 -215 c0 -243 5 -266 65 -291 35 -14 92
-18 117 -9 9 4 13 17 10 40 -4 31 -7 35 -34 35 -16 0 -38 5 -49 10 -18 10 -19
23 -19 220 l0 210 50 0 c49 0 50 1 50 30 0 29 -1 30 -50 30 l-49 0 -3 100 -3
100 -40 -24z"/>
<path d="M10515 8851 c-42 -11 -66 -25 -94 -55 -34 -36 -51 -33 -51 9 0 33 -2
35 -35 35 l-35 0 0 -285 0 -285 44 0 43 0 2 203 c2 229 10 259 71 289 72 37
179 15 202 -40 7 -16 13 -116 16 -239 l4 -213 39 0 39 0 0 223 c0 211 -1 225
-22 267 -36 72 -138 113 -223 91z"/>
<path d="M11097 8850 c-59 -15 -91 -35 -135 -85 -98 -112 -93 -333 11 -433
105 -102 286 -97 383 10 56 62 68 99 68 213 1 86 -2 107 -23 148 -44 90 -116
141 -216 151 -27 3 -67 1 -88 -4z m143 -91 c14 -7 28 -12 32 -11 4 1 10 -7 13
-18 4 -11 11 -20 17 -20 6 0 9 -3 5 -6 -3 -4 1 -21 10 -38 21 -40 20 -165 -1
-225 -9 -24 -26 -53 -39 -63 -24 -21 -77 -51 -77 -44 0 3 -13 1 -29 -4 -16 -4
-32 -5 -36 -2 -4 4 -11 8 -16 8 -5 1 -13 2 -19 3 -19 2 -90 74 -90 90 0 10 -3
21 -7 25 -11 11 -15 37 -13 111 2 94 3 105 11 105 4 0 11 9 14 21 12 38 59 74
114 89 30 8 75 -1 111 -21z"/>
<path d="M12784 8842 c-122 -43 -184 -142 -184 -293 0 -175 107 -291 269 -291
79 0 132 19 179 65 37 35 75 101 65 111 -4 3 -23 6 -42 6 -32 0 -39 -5 -56
-37 -29 -52 -68 -73 -140 -73 -85 0 -123 22 -157 89 -16 30 -28 70 -28 88 l0
33 221 0 221 0 -7 58 c-23 189 -180 302 -341 244z m188 -99 c25 -22 57 -89 53
-112 -2 -14 -22 -16 -163 -17 l-162 -1 6 31 c3 16 9 35 14 42 6 6 7 13 4 16
-9 10 64 62 103 74 44 13 111 -2 145 -33z"/>
<path d="M14041 8849 c-116 -35 -183 -143 -183 -295 0 -64 4 -85 31 -139 36
-73 87 -120 146 -136 59 -16 128 -6 175 25 22 14 44 26 50 26 17 0 12 -112 -8
-149 -27 -53 -63 -74 -135 -79 -81 -5 -134 15 -148 58 -11 31 -39 45 -77 38
-19 -3 -19 -5 -7 -41 29 -85 94 -122 215 -122 103 0 166 26 210 87 44 60 50
113 50 428 l0 290 -40 0 c-36 0 -40 -2 -40 -25 0 -32 -8 -31 -67 5 -54 33
-120 45 -172 29z m149 -92 c0 -5 5 -5 10 -2 6 3 10 -1 10 -9 0 -9 5 -16 11
-16 5 0 20 -21 31 -47 26 -58 28 -178 4 -235 -19 -44 -60 -91 -84 -94 -9 -1
-30 -4 -47 -7 -72 -10 -139 37 -161 113 -17 58 -12 205 8 235 49 70 119 101
184 81 19 -6 34 -15 34 -19z"/>
<path d="M14689 8847 c-123 -35 -192 -136 -193 -282 -1 -115 17 -169 78 -230
59 -58 110 -78 201 -77 83 1 159 41 203 106 18 27 31 54 29 60 -2 6 -21 12
-43 14 -37 3 -41 0 -57 -32 -30 -63 -105 -93 -189 -75 -60 13 -104 57 -123
123 -28 93 -45 86 206 86 l222 0 -6 60 c-12 109 -54 179 -133 222 -60 33 -134
42 -195 25z m174 -105 c36 -33 45 -51 52 -95 l6 -34 -148 -1 c-173 -1 -183 1
-176 31 29 130 175 184 266 99z"/>
<path d="M15935 8843 c-74 -27 -121 -67 -152 -131 -25 -51 -28 -68 -28 -157 0
-114 17 -166 76 -224 95 -95 258 -98 367 -6 87 74 115 248 60 377 -51 120
-200 184 -323 141z m154 -78 c16 -8 32 -11 36 -7 5 4 5 2 2 -5 -4 -6 4 -20 18
-32 15 -11 26 -23 25 -28 -1 -4 4 -27 11 -51 7 -26 10 -72 6 -118 -9 -122 -64
-187 -161 -190 -113 -4 -174 67 -180 207 -5 111 36 201 105 228 36 15 106 13
138 -4z"/>
<path d="M17685 8845 c-22 -9 -51 -27 -65 -40 -35 -33 -50 -32 -50 5 0 28 -2
30 -40 30 l-40 0 0 -285 0 -285 45 0 45 0 0 200 c0 225 7 256 62 290 40 24
124 27 155 5 35 -25 43 -77 43 -292 l0 -203 45 0 45 0 0 209 c0 200 1 209 23
242 29 44 60 59 123 59 102 0 113 -29 114 -317 l0 -193 40 0 40 0 0 227 c0
211 -1 230 -21 271 -51 105 -187 120 -284 31 -23 -21 -46 -39 -51 -39 -5 0
-16 13 -26 29 -32 57 -129 84 -203 56z"/>
<path d="M18626 8845 c-21 -7 -50 -25 -65 -39 -36 -34 -51 -33 -51 4 0 28 -2
30 -40 30 l-40 0 2 -397 3 -398 43 -3 42 -3 0 140 c0 113 3 141 14 141 7 0 19
-7 27 -16 23 -28 67 -44 121 -44 96 1 174 56 220 155 33 73 33 217 -1 293 -30
66 -96 126 -156 141 -55 14 -71 13 -119 -4z m109 -70 c61 -25 96 -98 100 -206
2 -77 -24 -179 -46 -179 -6 0 -8 -4 -4 -9 3 -5 -4 -12 -15 -16 -11 -4 -17 -11
-14 -17 4 -7 2 -8 -5 -4 -6 4 -17 4 -24 -1 -22 -17 -85 -15 -111 2 -14 10 -26
14 -26 9 0 -4 -13 10 -29 32 -16 21 -28 40 -26 42 1 2 -3 22 -9 45 -16 53 -14
98 6 202 1 6 10 19 20 29 9 10 15 22 13 26 -2 3 12 14 31 25 19 10 34 21 34
25 0 9 81 5 105 -5z"/>
<path d="M19213 8842 c-119 -43 -174 -121 -181 -262 -5 -101 7 -151 51 -216
103 -155 366 -137 447 30 64 133 36 319 -61 400 -70 59 -171 78 -256 48z m156
-77 c35 -18 74 -67 89 -113 16 -48 9 -180 -13 -225 -10 -21 -34 -50 -53 -65
-30 -23 -45 -27 -98 -27 -45 0 -68 5 -81 18 -11 9 -26 17 -33 17 -7 0 -11 3
-7 6 3 4 1 12 -6 20 -27 30 -32 40 -36 69 -6 39 -5 143 0 175 7 40 45 98 78
118 39 24 121 28 160 7z"/>
<path d="M20678 8847 c-129 -37 -210 -175 -194 -330 16 -160 121 -260 272
-259 103 1 185 46 225 125 24 46 19 57 -29 57 -32 0 -39 -5 -53 -33 -9 -17
-31 -43 -50 -55 -30 -21 -43 -23 -108 -20 -72 3 -74 4 -111 46 -22 24 -42 61
-49 86 -20 82 -37 76 209 76 l220 0 0 38 c0 55 -25 133 -58 178 -57 78 -177
118 -274 91z m166 -92 c28 -18 66 -89 66 -123 0 -21 -3 -21 -159 -20 -126 0
-161 3 -165 14 -14 36 65 144 105 144 10 0 20 4 23 9 8 12 100 -5 130 -24z"/>
<path d="M21315 8845 c-16 -8 -39 -29 -50 -45 -27 -40 -45 -38 -45 5 0 34 -1
35 -40 35 l-40 0 0 -285 0 -285 45 0 45 0 0 164 c0 179 10 258 39 296 24 33
72 46 116 33 33 -10 34 -10 49 26 l14 36 -36 17 c-45 21 -59 22 -97 3z"/>
<path d="M11562 8613 c39 -126 78 -253 87 -283 l17 -55 46 -3 c45 -3 47 -2 56
30 5 18 30 115 57 216 27 100 53 182 59 182 6 0 36 -96 66 -213 l55 -212 47
-3 c44 -3 46 -2 56 30 6 18 24 76 40 128 143 454 134 412 86 408 l-39 -3 -46
-155 c-25 -85 -54 -181 -63 -212 -9 -32 -22 -58 -29 -58 -8 0 -33 80 -67 215
l-55 215 -46 0 -47 0 -30 -112 c-17 -62 -44 -161 -59 -220 -26 -102 -45 -131
-57 -90 -3 9 -28 100 -56 202 -28 102 -53 193 -56 203 -4 13 -16 17 -48 17
l-43 0 69 -227z"/>
<path d="M19634 8824 c3 -9 43 -137 88 -285 l81 -269 47 0 47 0 54 210 c40
156 58 210 68 208 14 -3 21 -27 92 -295 l32 -123 46 0 46 0 84 273 c47 149 87
278 89 285 3 8 -8 12 -36 12 l-39 0 -52 -177 c-29 -98 -57 -195 -63 -215 -6
-21 -17 -38 -25 -38 -7 0 -13 2 -13 4 0 3 -52 202 -101 389 -9 36 -11 37 -54
37 l-44 0 -20 -67 c-11 -38 -38 -133 -59 -213 -26 -97 -44 -146 -54 -148 -11
-2 -29 48 -73 213 l-59 215 -44 0 c-36 0 -43 -3 -38 -16z"/>
</g>
</svg>
